<svg id="Layer_1" data-name="Layer 1" xmlns="http://www.w3.org/2000/svg" viewBox="0 0 375.28 62.94"><defs><style>.cls-1{fill:#540b0e;}</style></defs><path class="cls-1" d="M21.56,62.79c-4.5,0-8.92,0-13.42-.08-1,0-8.14.35-8.14-1.26,0-1.88,1.56-2,3-2.68a3.45,3.45,0,0,0,1.91-1.61c1.47-3,1-22.11,1-25.69s.44-22.64-1-25.68A3.41,3.41,0,0,0,3,4.18c-1.47-.72-3-.81-3-2.69C0-.12,6.23.24,7.19.24c4.33-.09,8.66-.09,13-.09h13c4.59,0,29.09-1.16,32.21,3,1.13,1.53.95,4.21.95,6,0,.9.18,8-.43,8.77a1.52,1.52,0,0,1-.87.18c-2.07,0-2.33-6.26-2.59-7.61-.26-1.7-.52-4-1.73-5.37-3-3-18.88-2.23-22.78-2.23-3.29,0-6.58,0-9.78.09-12.9.26-13.51,1.7-13.51,14,0,2.77-.17,7.33.7,9.93C17.23,32.37,29.27,31,33.77,31c3,0,16.8.62,19.13-1.62a6.3,6.3,0,0,0,1.3-3c.44-1.43.61-4.65,2.6-4.65a1.13,1.13,0,0,1,.78.18c.78.8.52,9.48.52,10.47s.26,9.66-.52,10.47a1.13,1.13,0,0,1-.78.18c-2,0-2.16-3.22-2.6-4.66a6.39,6.39,0,0,0-1.3-3c-2.33-2.24-16.1-1.61-19.13-1.61-4.16,0-16.54-1.34-18.44,3.94-.87,2.33-.7,6.71-.7,9.22,0,2.68-.26,7.42,1.13,9.75,2.86,4.65,19.39,3.49,23.9,3.49,4.07,0,21,.81,24.24-2.15,1.47-1.25,1.64-3.67,2-5.46.26-1.34.52-7.6,2.6-7.6a1.49,1.49,0,0,1,.86.18c.61.8.44,7.87.44,8.77,0,2,.17,4.74-1.3,6.26-3.55,3.76-28.66,2.68-33.6,2.68Z"/><path class="cls-1" d="M85.2,1.05c5.89,2.77,23.46,20,28.49,24.79C117.06,29,133.51,45.52,138,45.52c4.15,0,3.11-14.49,3.11-17,0-3.31.44-20.14-1-22.82a3.57,3.57,0,0,0-1.9-1.52c-1.47-.72-3-.81-3-2.69a1.42,1.42,0,0,1,.26-1c.78-.54,6.23-.36,7-.36s6.24-.18,7,.36a1.46,1.46,0,0,1,.25,1c0,1.88-1.47,2-2.94,2.69a3.46,3.46,0,0,0-1.9,1.43c-1.65,3.13-1.13,24.79-1.13,28.55,0,7.43.09,14.76-.09,22.19,0,.9.35,6.44-1.21,6.44-4.15,0-49.09-48.41-56.71-48.41-4.5,0-3.38,15.57-3.38,18.26,0,3.58-.43,21.38,1,24.43.44,1,1.22,1.25,2.08,1.7,1.47.71,2.95.8,2.95,2.68a1.43,1.43,0,0,1-.26,1c-.78.53-6.24.35-7,.35s-6.23.18-7-.35a1.43,1.43,0,0,1-.26-1c0-1.88,1.56-2,3-2.68a3.3,3.3,0,0,0,2-1.61c1.39-3.14.95-22.11.95-25.78s.44-22.55-.95-25.68a3.3,3.3,0,0,0-2-1.61c-1.47-.63-3-.72-3-2.6C73.77-.65,78.88.15,80,.15A10.46,10.46,0,0,1,85.2,1.05Z"/><path class="cls-1" d="M173.34.69c.26.18.26.63.26,1,0,3.05-3.11,2.6-3.11,4.66,0,2.77,10.9,20.85,12.46,23.53,1.82,3.13,9.27,17.72,13.34,17.72s10.39-14.59,12-17.72,10.39-19.77,10.39-23c0-2.95-5.11-1.79-5.11-5.19a2,2,0,0,1,.17-1c.69-.81,6.49-.54,7.27-.54s6.58-.27,7.28.54a2,2,0,0,1,.17,1c0,2.06-1,2.15-2.68,3.05a7.7,7.7,0,0,0-2.17,1.7c-2.25,2.86-3.9,6.71-5.54,9.93-3.12,6.08-6.06,12.08-9.09,18.17-1.82,3.58-12,25.23-14.46,27.83a1.31,1.31,0,0,1-1.13.44,1.28,1.28,0,0,1-1.12-.44c-2.86-2.87-14.38-23.9-16.63-27.83-3.46-6.09-7-12.17-10.56-18.17-1.9-3.22-3.81-7.07-6.41-9.93a6.94,6.94,0,0,0-2.25-1.7c-1.64-.9-3-1-3-3,0-.35,0-.8.26-1,1-.72,8.75-.54,9.87-.54S172.39,0,173.34.69Z"/><path class="cls-1" d="M253.26,62.79c-4.5,0-8.92,0-13.42-.08-1,0-8.14.35-8.14-1.26,0-1.88,1.56-2,3-2.68a3.45,3.45,0,0,0,1.91-1.61c1.47-3,1-22.11,1-25.69s.44-22.64-1-25.68a3.41,3.41,0,0,0-1.91-1.61c-1.47-.72-3-.81-3-2.69,0-1.61,6.24-1.25,7.19-1.25,4.33-.09,8.66-.09,13-.09h13c4.59,0,29.09-1.16,32.21,3,1.13,1.53.95,4.21.95,6,0,.9.18,8-.43,8.77a1.49,1.49,0,0,1-.86.18c-2.08,0-2.34-6.26-2.6-7.61-.26-1.7-.52-4-1.73-5.37-2.95-3-18.88-2.23-22.78-2.23-3.29,0-6.58,0-9.78.09-12.9.26-13.51,1.7-13.51,14,0,2.77-.17,7.33.7,9.93C248.93,32.37,261,31,265.47,31c3,0,16.8.62,19.13-1.62a6.3,6.3,0,0,0,1.3-3c.44-1.43.61-4.65,2.6-4.65a1.13,1.13,0,0,1,.78.18c.78.8.52,9.48.52,10.47s.26,9.66-.52,10.47a1.13,1.13,0,0,1-.78.18c-2,0-2.16-3.22-2.6-4.66a6.39,6.39,0,0,0-1.3-3c-2.33-2.24-16.1-1.61-19.13-1.61-4.16,0-16.54-1.34-18.44,3.94-.87,2.33-.7,6.71-.7,9.22,0,2.68-.26,7.42,1.13,9.75,2.86,4.65,19.39,3.49,23.9,3.49,4.07,0,21,.81,24.24-2.15,1.47-1.25,1.64-3.67,2-5.46.26-1.34.52-7.6,2.6-7.6a1.49,1.49,0,0,1,.86.18c.61.8.44,7.87.44,8.77,0,2,.17,4.74-1.3,6.26-3.55,3.76-28.66,2.68-33.6,2.68Z"/><path class="cls-1" d="M327,62.79c-4.5,0-8.92,0-13.42-.08-.95,0-8.14.35-8.14-1.26,0-1.88,1.56-2,3-2.68a3.45,3.45,0,0,0,1.91-1.61c1.47-3,1-22.11,1-25.69s.44-22.64-1-25.68a3.41,3.41,0,0,0-1.91-1.61c-1.47-.72-3-.81-3-2.69,0-1.61,6.23-1.25,7.19-1.25,4.33-.09,8.66-.09,13-.09h13c4.59,0,29.09-1.16,32.21,3,1.13,1.53,1,4.21,1,6,0,.9.18,8-.43,8.77a1.52,1.52,0,0,1-.87.18c-2.07,0-2.33-6.26-2.59-7.61-.26-1.7-.52-4-1.73-5.37-2.95-3-18.88-2.23-22.78-2.23-3.29,0-6.58,0-9.78.09-12.9.26-13.51,1.7-13.51,14,0,2.77-.17,7.33.7,9.93,1.9,5.55,13.94,4.21,18.44,4.21,3,0,16.8.62,19.13-1.62a6.3,6.3,0,0,0,1.3-3c.43-1.43.61-4.65,2.6-4.65a1.13,1.13,0,0,1,.78.18c.78.8.52,9.48.52,10.47s.26,9.66-.52,10.47a1.13,1.13,0,0,1-.78.18c-2,0-2.17-3.22-2.6-4.66a6.39,6.39,0,0,0-1.3-3c-2.33-2.24-16.1-1.61-19.13-1.61-4.16,0-16.54-1.34-18.44,3.94-.87,2.33-.7,6.71-.7,9.22,0,2.68-.26,7.42,1.13,9.75,2.86,4.65,19.39,3.49,23.9,3.49,4.07,0,21,.81,24.24-2.15,1.47-1.25,1.64-3.67,2-5.46.26-1.34.52-7.6,2.6-7.6a1.49,1.49,0,0,1,.86.18c.61.8.44,7.87.44,8.77,0,2,.17,4.74-1.3,6.26-3.55,3.76-28.66,2.68-33.6,2.68Z"/></svg>